<?xml version="1.0" encoding="utf-8"?>
<!-- Generator: Adobe Illustrator 19.2.1, SVG Export Plug-In . SVG Version: 6.00 Build 0)  -->
<svg version="1.1" id="Calque_1" xmlns="http://www.w3.org/2000/svg" xmlns:xlink="http://www.w3.org/1999/xlink" x="0px" y="0px"
	 width="190.5px" height="157px" viewBox="0 0 190.5 157" style="enable-background:new 0 0 190.5 157;" xml:space="preserve">
<style type="text/css">
	.st0{fill:#D7EAF4;}
	.st1{fill:#E77200;}
	.st2{fill:#7C6655;}
	.st3{fill:#FCF4DE;}
	.st4{fill:#88C9B3;}
	.st5{fill:#C65C05;}
	.st6{fill:#FFFFFF;}
	.st7{fill:#AADACA;}
	.st8{fill:url(#SVGID_1_);}
	.st9{fill:#C6C6C6;}
	.st10{fill:#EFEFEF;}
</style>
<path class="st0" d="M11.4,98.9C6.9,103.4,5.3,110,7,116.1s6.6,10.8,12.8,12.3c-1.3,3-1.7,6.3-1.3,9.5c30.8,0.1,61.6,3,92.4,3.3
	c17.1,0.2,34.3,0.1,51.3,2.1c2.1,0.2,4.2,0.5,6.3,0.9c2.7-4.8,3.1-10.6,0.9-15.8c6.2-1.5,11.1-6.2,12.8-12.3
	c1.7-6.1,0.1-12.7-4.4-17.2c5.2-3.6,8.1-9.8,7.5-16.1c-0.6-6.3-4.5-11.9-10.3-14.5c3.6-5.3,4-12.1,1.2-17.7
	c-2.8-5.7-8.5-9.4-14.9-9.8c1.4-6.2-0.6-12.7-5.3-17s-11.3-5.7-17.4-3.7c-0.9-6.3-5.2-11.6-11.1-13.9C121.7,3.9,115,4.9,110,8.9
	C106.9,3.4,101,0,94.7,0c-6.4,0-12.2,3.4-15.4,8.9c-4.9-4-11.6-5.1-17.6-2.8C55.8,8.5,51.6,13.8,50.6,20c-6-2-12.7-0.5-17.4,3.7
	c-4.7,4.3-6.7,10.8-5.3,17c-6.3,0.3-12,4.1-14.9,9.8c-2.8,5.7-2.4,12.5,1.2,17.7c-5.8,2.6-9.7,8.1-10.3,14.5
	C3.3,89.1,6.2,95.2,11.4,98.9z"/>
<g>
	<path class="st1" d="M155.2,101.8v7.5c0,4-3.2,7.2-7.2,7.2H38.5c-4,0-7.2-3.2-7.2-7.2v-7.5h43.6c0,3.7,3,6.6,6.6,6.6H105
		c3.7,0,6.6-3,6.6-6.6H155.2z"/>
	<path class="st2" d="M147.6,35v66.9H38.9v-43c2.3,2.4,5,4.5,8.1,6v28.9h92.7V37.5H86.8c-0.2-2.8-0.9-5.5-1.9-8.1h57.3
		C145.2,29.5,147.6,31.9,147.6,35L147.6,35z"/>
	<path class="st3" d="M139.6,62.9v30.9h-17.8L139.6,62.9z"/>
	<path class="st4" d="M139.6,37.5v25.4l-17.8,30.9H92.6l32.5-56.2h14.5V37.5z"/>
	<path class="st3" d="M125.1,37.5L92.6,93.8H82.1l32.5-56.2h10.5V37.5z"/>
	<path class="st4" d="M114.6,37.5L82.1,93.8H46.9V64.9c3.7,1.8,7.8,2.8,12.2,2.8c4.3,0,8.3-1,11.9-2.7l11.3,10.3l-2.2-17.2
		c4.2-4.9,6.7-11.2,6.7-18.1c0-0.8,0-1.6-0.1-2.4h27.9V37.5z"/>
	<path class="st5" d="M74.9,101.8h36.7c0,3.7-3,6.6-6.6,6.6H81.5C77.9,108.5,74.9,105.5,74.9,101.8L74.9,101.8z"/>
	<path class="st3" d="M46.9,37.5v56.2h92.7V37.5H46.9z M136.3,90.5H50.2V40.8h86.1V90.5z"/>
	<path class="st6" d="M46.9,64.9c-3-1.5-5.8-3.5-8.1-6c-4.7-5-7.5-11.6-7.5-19c0-15.3,12.4-27.8,27.8-27.8
		c11.6,0,21.6,7.1,25.7,17.3c1,2.5,1.7,5.2,1.9,8.1c0.1,0.8,0.1,1.6,0.1,2.4c0,6.9-2.5,13.3-6.7,18.1l2.2,17.2L71.1,65
		c-3.6,1.7-7.7,2.7-11.9,2.7C54.7,67.7,50.6,66.7,46.9,64.9L46.9,64.9z"/>
	<path class="st6" d="M118.4,45c1.5-3,3.5-5.8,6-8.1c5-4.7,11.6-7.5,19-7.5c15.3,0,27.8,12.4,27.8,27.8c0,11.6-7.1,21.6-17.3,25.7
		c-2.5,1-5.2,1.7-8.1,1.9c-0.8,0.1-1.6,0.1-2.4,0.1c-6.9,0-13.3-2.5-18.1-6.7L108,80.5l10.3-11.3c-1.7-3.6-2.7-7.7-2.7-11.9
		C115.6,52.9,116.6,48.7,118.4,45L118.4,45z"/>
</g>
<path class="st7" d="M44.1,28.7l21.5-6.8c2-0.6,4.2,0.5,4.9,2.5L77.4,46c0.6,2-0.5,4.2-2.5,4.9l-21.5,6.8c-2,0.6-4.3-0.5-4.9-2.5
	l-6.8-21.5C40.9,31.6,42.1,29.4,44.1,28.7z M62.5,26.5c-0.7,0.2-1.1,1-0.9,1.7l1,3.1c0.2,0.7,1,1.1,1.7,0.9l3.3-1
	c0.7-0.2,1.1-1,0.9-1.7l-1-3.1c-0.2-0.7-1-1.1-1.7-0.9L62.5,26.5z M70,34l-2.5,0.8c0.5,0.7,0.9,1.5,1.2,2.4c1.5,4.8-1.3,10-6.2,11.6
	c-5,1.6-10.2-1.1-11.8-5.9c-0.3-0.9-0.4-1.7-0.4-2.6l-2.7,0.8l3.9,12.2c0.2,0.6,0.9,1,1.5,0.8l20.2-6.4c0.6-0.2,1-0.9,0.8-1.5L70,34
	z M57.7,34.1c-3.2,1-5,4.4-4,7.5s4.4,4.8,7.6,3.8c3.2-1,5-4.4,4-7.5S60.9,33.1,57.7,34.1z"/>
<path class="st7" d="M150.3,58.2l0.8-6.5h-6.4v-4.2c0-1.9,0.5-3.2,3.2-3.2h3.4v-5.8c-0.6-0.1-2.6-0.3-5-0.3c-4.9,0-8.3,3-8.3,8.6
	v4.8h-5.6v6.5h5.6v16.7h6.7V58.2H150.3z"/>
<g>
	<g>
		
			<linearGradient id="SVGID_1_" gradientUnits="userSpaceOnUse" x1="-225.7463" y1="709.7187" x2="-214.9654" y2="709.7187" gradientTransform="matrix(1 0 0 0.9629 226.1758 -563.7881)">
			<stop  offset="0" style="stop-color:#F07230"/>
			<stop  offset="0.1588" style="stop-color:#F17A31"/>
			<stop  offset="0.4013" style="stop-color:#F48F35"/>
			<stop  offset="0.503" style="stop-color:#F69A37"/>
			<stop  offset="0.6809" style="stop-color:#F69737"/>
			<stop  offset="0.7928" style="stop-color:#F48F35"/>
			<stop  offset="0.8864" style="stop-color:#F28033"/>
			<stop  offset="0.9696" style="stop-color:#EF6C30"/>
			<stop  offset="1" style="stop-color:#EE622F"/>
		</linearGradient>
		<path class="st8" d="M11.1,134.9c-0.4,0-0.8,0-1.2,0l0,0c-0.3,0-0.5,0-0.8,0.1c-0.1,0-0.3,0-0.4,0c-0.3,0-0.6,0.1-0.9,0.1
			c-0.1,0-0.1,0-0.2,0c-0.3,0.1-0.7,0.1-1,0.2l0,0c-0.3,0.1-0.5,0.2-0.8,0.2c-0.1,0-0.2,0.1-0.2,0.1c-0.2,0.1-0.3,0.1-0.5,0.2
			c-0.2,0.1-0.3,0.1-0.5,0.2c-0.2,0.1-0.4,0.2-0.6,0.3l0,0c-0.2,0.1-0.4,0.2-0.6,0.4l-0.1,0.1c-0.2,0.1-0.4,0.3-0.6,0.4
			c0,0-0.1,0-0.1,0.1c-0.2,0.1-0.3,0.3-0.5,0.4l0,0c-0.2,0.1-0.3,0.3-0.4,0.4l-0.1,0.1c-0.1,0.1-0.2,0.3-0.3,0.5c0,0,0,0.1-0.1,0.1
			c-0.1,0.1-0.2,0.3-0.2,0.4c0,0,0,0.1-0.1,0.1c-0.1,0.2-0.1,0.3-0.2,0.5v0.1c0,0.1-0.1,0.3-0.1,0.4v0.1c0,0.2,0,0.3,0,0.5l0.1-36.6
			c0-0.1,0-0.3,0-0.4v-0.1v-0.1c0-0.1,0.1-0.3,0.1-0.4v-0.1c0,0,0,0,0-0.1s0.1-0.3,0.2-0.4v-0.1c0-0.1,0.1-0.1,0.1-0.2
			s0.1-0.1,0.1-0.2c0,0,0-0.1,0.1-0.1c0.1-0.1,0.2-0.3,0.3-0.4c0,0,0,0,0.1-0.1c0,0,0-0.1,0.1-0.1c0.1-0.1,0.3-0.3,0.4-0.4l0,0l0,0
			c0.2-0.1,0.3-0.3,0.5-0.4c0,0,0.1,0,0.1-0.1c0,0,0,0,0.1,0c0.2-0.1,0.3-0.2,0.5-0.3c0,0,0.1,0,0.1-0.1c0.1,0,0.1-0.1,0.2-0.1
			c0.1-0.1,0.3-0.2,0.5-0.3l0,0c0.2-0.1,0.3-0.2,0.5-0.2c0,0,0.1,0,0.2-0.1s0.3-0.1,0.5-0.2c0.1,0,0.2-0.1,0.3-0.1
			c0.1,0,0.1,0,0.2-0.1C6,99.1,6.1,99,6.2,99C5.9,99,6,99,6,98.9c0.2-0.1,0.4-0.1,0.6-0.2l0,0l0,0c0.1,0,0.3-0.1,0.4-0.1
			c0.2,0,0.4-0.1,0.6-0.1l0,0c0.1,0,0.1,0,0.2,0c0.3-0.1,0.6-0.1,0.9-0.1c0.1,0,0.3,0,0.4,0c0.2,0,0.5-0.1,0.7-0.1c0,0,0,0,0.1,0
			l0,0c0.2,0,0.3,0,0.5,0s0.3,0,0.5,0c0.1,0,0.2,0,0.3,0L11.1,134.9z"/>
		<path class="st9" d="M11.1,134.7c-0.4,0-0.8,0-1.2,0l0,0c-0.3,0-0.5,0-0.8,0.1c-0.1,0-0.3,0-0.4,0c-0.3,0-0.6,0.1-0.9,0.1
			c-0.1,0-0.1,0-0.2,0c-0.3,0.1-0.7,0.1-1,0.2l0,0c-0.3,0.1-0.5,0.1-0.8,0.2c-0.1,0-0.2,0.1-0.2,0.1c-0.2,0.1-0.3,0.1-0.5,0.2
			c-0.2,0.1-0.3,0.1-0.5,0.2c-0.2,0.1-0.4,0.2-0.6,0.3l0,0c-0.2,0.1-0.4,0.2-0.6,0.4l-0.1,0.1c-0.2,0.1-0.4,0.3-0.6,0.4
			c0,0-0.1,0-0.1,0.1c-0.2,0.1-0.3,0.3-0.5,0.4l0,0c-0.2,0.1-0.3,0.3-0.4,0.4L1.6,138c-0.1,0.1-0.2,0.3-0.3,0.5c0,0,0,0.1-0.1,0.1
			C1.1,138.7,1,138.9,1,139c0,0,0,0.1-0.1,0.1c-0.1,0.2-0.1,0.3-0.2,0.5v0.1c0,0.1-0.1,0.2-0.1,0.4v0.1c0,0.2,0,0.3,0,0.5l0.1-36.6
			c0-0.1,0-0.3,0-0.4v-0.1c0-0.1,0-0.1,0-0.1c0-0.1,0.1-0.3,0.1-0.4V103c0,0,0,0,0-0.1s0.1-0.3,0.2-0.4v-0.1c0-0.1,0.1-0.1,0.1-0.2
			s0.1-0.1,0.1-0.2c0,0,0-0.1,0.1-0.1c0.1-0.1,0.2-0.3,0.3-0.4c0,0,0,0,0.1-0.1c0,0,0-0.1,0.1-0.1c0.1-0.1,0.3-0.3,0.4-0.4l0,0l0,0
			c0.2-0.1,0.3-0.3,0.5-0.4c0,0,0.1,0,0.1-0.1c0,0,0,0,0.1-0.1c0.2-0.1,0.3-0.2,0.5-0.3c0,0,0.1,0,0.1-0.1c0.1,0,0.1-0.1,0.2-0.1
			c0.1-0.1,0.3-0.2,0.5-0.3l0,0c0.2-0.1,0.3-0.2,0.5-0.2c0,0,0.1,0,0.2-0.1s0.3-0.1,0.5-0.2c0.1,0,0.2-0.1,0.3-0.1
			c0.1,0,0.1,0,0.2-0.1c0.1,0,0.2-0.1,0.3-0.1c0.1,0,0.2-0.1,0.2-0.1c0.2-0.1,0.4-0.1,0.6-0.2l0,0l0,0c0.1,0,0.3-0.1,0.4-0.1
			c0.2,0,0.4-0.1,0.6-0.1l0,0c0.1,0,0.1,0,0.2,0c0.3-0.1,0.6-0.1,0.9-0.1c0.1,0,0.3,0,0.4,0c0.2,0,0.5-0.1,0.7-0.1c0,0,0,0,0.1,0
			l0,0c0.2,0,0.3,0,0.5,0s0.3,0,0.5,0c0.1,0,0.2,0,0.3,0L11.1,134.7z"/>
		<path class="st6" d="M190.5,146.8c-1,0-165.7,0-173.9,0c-0.1,0-0.1,0-0.2,0c-0.2,0-0.5,0-0.7,0c-0.1,0-0.2,0-0.4,0s-0.3,0-0.5,0
			c-0.1,0-0.3,0-0.4,0c-0.1,0-0.2,0-0.3,0c-1.2,0-2.2,0-2.9,0c-0.2,0-0.4,0-0.6,0l0,0c-0.1,0-0.2,0-0.3,0s-0.2,0-0.3,0
			c0,0,0,0-0.1,0s-0.3,0-0.4,0c-0.1,0-0.2,0-0.2,0l0,0c-0.2,0-0.5,0-0.7-0.1l0,0H8.5c-0.2,0-0.5-0.1-0.7-0.1H7.7H7.6
			c-0.3,0-0.6-0.1-0.8-0.1l0,0c0,0,0,0-0.1,0c-0.3-0.1-0.6-0.1-0.9-0.2l0,0l0,0c-0.3-0.1-0.6-0.2-0.9-0.3c0,0,0,0-0.1,0l0,0
			c-0.1,0-0.2-0.1-0.3-0.1c-0.1,0-0.1,0-0.2-0.1c-0.1,0-0.2-0.1-0.3-0.1c0,0-0.1,0-0.1-0.1l0,0c-0.2-0.1-0.3-0.1-0.5-0.2
			c0,0-0.1,0-0.1-0.1c-0.1-0.1-0.2-0.1-0.3-0.2H2.9l0,0c-0.2-0.1-0.4-0.2-0.6-0.4c0,0-0.1,0-0.1-0.1c-0.2-0.1-0.4-0.3-0.5-0.4
			c0,0,0,0-0.1-0.1c-0.2-0.1-0.3-0.3-0.4-0.4c0,0,0,0,0-0.1c-0.1-0.2-0.3-0.3-0.4-0.5l0,0c-0.1-0.2-0.2-0.3-0.3-0.5l0,0
			c-0.1-0.2-0.1-0.3-0.2-0.5l0,0c-0.1-0.2-0.1-0.4-0.1-0.5l0,0c0-0.2,0-0.4,0-0.5l0.1-36.6c0,0.2,0,0.4,0,0.5l0,0
			c0,0.2,0.1,0.4,0.1,0.5l0,0c0.1,0.2,0.1,0.3,0.2,0.5l0,0c0.1,0.2,0.2,0.3,0.3,0.5l0,0c0.1,0.2,0.2,0.3,0.4,0.5c0,0,0,0,0,0.1
			c0.1,0.1,0.3,0.3,0.4,0.4c0,0,0,0,0.1,0.1c0.2,0.1,0.3,0.3,0.5,0.4c0,0,0.1,0,0.1,0.1c0.2,0.1,0.4,0.3,0.6,0.4c0,0,0.1,0,0.1,0.1
			c0.1,0.1,0.2,0.1,0.3,0.2c0,0,0.1,0,0.1,0.1c0.2,0.1,0.3,0.1,0.5,0.2c0,0,0.1,0,0.2,0.1c0.1,0,0.2,0.1,0.3,0.1
			c0.1,0,0.1,0.1,0.2,0.1s0.2,0.1,0.3,0.1h0.1c0.3,0.1,0.6,0.2,0.9,0.3l0,0c0.3,0.1,0.6,0.1,0.9,0.2H7c0.3,0.1,0.5,0.1,0.8,0.1
			c0.1,0,0.1,0,0.2,0c0.2,0,0.4,0.1,0.7,0.1h0.1c0.2,0,0.5,0,0.7,0.1c0.1,0,0.2,0,0.3,0s0.3,0,0.4,0c0.1,0,0.3,0,0.4,0
			c0.1,0,0.2,0,0.3,0c0.2,0,0.4,0,0.7,0c0.1,0,0.3,0,0.5,0c0.6,0,1.5,0,2.5,0c0.1,0,0.2,0,0.3,0s0.3,0,0.4,0c0.2,0,0.3,0,0.5,0
			c0.1,0,0.2,0,0.4,0c0.2,0,0.4,0,0.7,0c0.1,0,0.1,0,0.2,0c8.2,0,23.5,0,41.5,0h0.1c0.7,0,1.5,0,2.3,0c48.3,0,129-0.1,130-0.1"/>
	</g>
	<path class="st0" d="M15.5,110.1V99.3c-1.6-0.4-3.2-0.7-4.8-0.9c0.2,0.2,0.4,0.3,0.7,0.5c-3,3.1-4.8,7.1-5,11.2H15.5z"/>
	<rect x="8.6" y="116.2" class="st10" width="29.7" height="24.7"/>
	<rect x="43.7" y="116.2" class="st10" width="44.2" height="24.7"/>
	<rect x="93.9" y="116.2" class="st10" width="29.7" height="24.7"/>
	<rect x="128.1" y="116.2" class="st10" width="20.8" height="24.7"/>
	<rect x="153.9" y="116.2" class="st10" width="29" height="24.7"/>
</g>
</svg>
