<?xml version="1.0" encoding="utf-8"?>
<!-- Generator: Adobe Illustrator 19.2.1, SVG Export Plug-In . SVG Version: 6.00 Build 0)  -->
<svg version="1.1" id="Calque_1" xmlns="http://www.w3.org/2000/svg" xmlns:xlink="http://www.w3.org/1999/xlink" x="0px" y="0px"
	 width="190.5px" height="157px" viewBox="0 0 190.5 157" style="enable-background:new 0 0 190.5 157;" xml:space="preserve">
<style type="text/css">
	.st0{fill:#D7EAF4;}
	.st1{fill:#B8C1BD;}
	.st2{fill:#CBD3D0;}
	.st3{fill:#F4F4F4;}
	.st4{fill:#FFFFFF;}
	.st5{fill:#A2A3A2;}
</style>
<path id="XMLID_12128_" class="st0" d="M74.7,10c2.3-4.1,6.7-6.7,11.5-6.7c4.7,0,9.1,2.6,11.5,6.7c3.7-3,8.7-3.8,13.1-2.1
	s7.6,5.7,8.3,10.4c4.5-1.5,9.5-0.4,13,2.8c3.5,3.2,5,8,4,12.7c4.7,0.3,9,3,11.1,7.3c2.1,4.3,1.8,9.3-0.9,13.3
	c4.3,2,7.3,6.1,7.7,10.8c0.4,4.7-1.7,9.3-5.6,12c3.3,3.4,4.6,8.3,3.3,12.9c-1.3,4.6-5,8.1-9.6,9.2c1.9,4.4,1.3,9.4-1.6,13.2
	c-2.9,3.8-7.5,5.7-12.2,5.1c0.2,4.7-2.2,9.2-6.2,11.7c-4,2.5-9.1,2.6-13.3,0.4c-1.5,4.5-5.4,7.8-10.1,8.7c-4.7,0.9-9.4-0.8-12.5-4.5
	c-3.1,3.6-7.8,5.3-12.5,4.5c-4.7-0.9-8.5-4.2-10.1-8.7c-4.2,2.3-9.2,2.1-13.3-0.4c-4-2.5-6.4-7-6.2-11.7c-4.7,0.6-9.4-1.3-12.2-5.1
	c-2.9-3.8-3.5-8.8-1.6-13.2c-4.6-1.1-8.3-4.6-9.6-9.2c-1.3-4.6,0-9.5,3.3-12.9c-3.9-2.7-6-7.3-5.6-12c0.4-4.7,3.4-8.9,7.7-10.8
	c-2.7-3.9-3-9-0.9-13.3c2.1-4.3,6.4-7,11.1-7.3c-1.1-4.6,0.5-9.5,4-12.7c3.5-3.2,8.5-4.3,13-2.8C54,13.6,57.1,9.7,61.6,8
	C66,6.2,71,7,74.7,10z"/>
<g>
	<g>
		<ellipse class="st1" cx="112.2" cy="89.3" rx="19.8" ry="18.7"/>
		<rect x="62.8" y="70.6" class="st1" width="50.3" height="37.3"/>
	</g>
	<ellipse class="st2" cx="62.8" cy="89.3" rx="19.8" ry="18.7"/>
	<ellipse class="st3" cx="62.8" cy="89.3" rx="6.3" ry="5.9"/>
	<path class="st4" d="M128,89.5c0-10-7.3-19.6-16.4-20H64.7c9.5,0,20.3,9.7,20.3,20c0,5.5,0.1,12.7,0.1,18.3v0.1v10.5
		c0,2.6,1.8,4.7,4.1,4.7h34.5c2.3,0,4.1-2.1,4.1-4.7v-10.5c0-0.1,0-0.3,0-0.4C127.9,102,128,94.8,128,89.5z"/>
	<g>
		<ellipse class="st1" cx="112.2" cy="51.8" rx="19.8" ry="18.7"/>
		<rect x="62.8" y="33.1" class="st1" width="50.3" height="37.3"/>
	</g>
	<path class="st5" d="M132,51.8H62.8v18.7h50.3l0,0C123.6,69.9,132,61.8,132,51.8z"/>
	<ellipse class="st2" cx="62.8" cy="51.8" rx="19.8" ry="18.7"/>
	<ellipse class="st3" cx="62.8" cy="51.8" rx="6.3" ry="5.9"/>
</g>
<path class="st4" d="M84.6,130.7c0,12.2,7.3,23.8,16.4,24.3h46.9c-9.5,0-20.3-11.8-20.3-24.3c0-6.7-0.1-15.4-0.1-22.3v-0.1V95.5
	c0-3.2-1.8-5.7-4.1-5.7H88.9c-2.3,0-4.1,2.6-4.1,5.7v12.8c0,0.1,0,0.4,0,0.5C84.8,115.6,84.6,124.2,84.6,130.7z"/>
</svg>
