<?xml version="1.0" encoding="utf-8"?>
<!-- Generator: Adobe Illustrator 19.2.1, SVG Export Plug-In . SVG Version: 6.00 Build 0)  -->
<svg version="1.1" id="Calque_1" xmlns="http://www.w3.org/2000/svg" xmlns:xlink="http://www.w3.org/1999/xlink" x="0px" y="0px"
	 width="190.5px" height="157px" viewBox="0 0 190.5 157" style="enable-background:new 0 0 190.5 157;" xml:space="preserve">
<style type="text/css">
	.st0{fill:#D7EAF4;}
	.st1{fill:#C94747;}
	.st2{fill:#ED4C5C;}
	.st3{fill:#881A0E;}
	.st4{fill:#AF2B2B;}
	.st5{fill:#FFFFFF;}
</style>
<path id="XMLID_12128_" class="st0" d="M79.5,10.2c2.6-4.7,7.6-7.5,12.9-7.5c5.4,0,10.3,2.9,12.9,7.5c4.1-3.4,9.8-4.3,14.8-2.4
	s8.6,6.4,9.3,11.7c5.1-1.7,10.7-0.5,14.6,3.1c4,3.6,5.7,9.1,4.5,14.3c5.3,0.3,10.1,3.4,12.5,8.2s2,10.5-1,14.9
	c4.9,2.2,8.2,6.8,8.7,12.2c0.5,5.3-1.9,10.5-6.3,13.6c3.8,3.8,5.2,9.3,3.7,14.5c-1.5,5.1-5.6,9.1-10.8,10.4
	c2.1,4.9,1.4,10.6-1.8,14.9c-3.2,4.3-8.5,6.5-13.8,5.8c0.2,5.3-2.5,10.4-7,13.2s-10.3,3-15,0.4c-1.7,5.1-6.1,8.8-11.3,9.8
	c-5.3,1-10.6-0.9-14.1-5c-3.4,4.1-8.8,6-14.1,5c-5.3-1-9.6-4.7-11.3-9.8c-4.7,2.6-10.4,2.4-15-0.4c-4.5-2.8-7.2-7.9-7-13.2
	c-5.3,0.7-10.6-1.5-13.8-5.8s-3.9-9.9-1.8-14.9c-5.2-1.3-9.3-5.2-10.8-10.4c-1.5-5.1,0-10.7,3.7-14.5c-4.4-3.1-6.8-8.2-6.3-13.6
	c0.5-5.3,3.8-10,8.7-12.2c-3-4.4-3.4-10.1-1-14.9s7.2-7.9,12.5-8.2c-1.2-5.2,0.5-10.7,4.5-14.3s9.5-4.8,14.6-3.1
	c0.8-5.3,4.3-9.8,9.3-11.7C69.7,5.9,75.3,6.8,79.5,10.2z"/>
<g>
	<g>
		<path class="st1" d="M129.7,33.5H60.6h-0.1c-6.9,0-14.1,10.3-14.1,38.2v47.1v8.8h6.3v-8.8h56.5v8.8h6.3l4.6-2.1v-8.8l9.9-4.6v5.7
			h6.3l4.6-2.1v-8.8v-0.1v-44C140.5,46.9,136.5,33.8,129.7,33.5"/>
		<path class="st2" d="M60.6,33.5h69v47.1h-69C60.6,80.6,60.6,33.5,60.6,33.5z"/>
		<path class="st3" d="M129.7,108.2h6.3v9.7h-6.3V108.2z"/>
		<g>
			<path class="st2" d="M71.5,62.9l-25.1,8.8c0-27.9,7.2-38.2,14.1-38.2S71.5,46.8,71.5,62.9z"/>
			<path class="st2" d="M71.5,107.1l-25.1,11.8V71.8L71.5,63V107.1z"/>
		</g>
		<g>
			<path class="st1" d="M140.5,107.1l-25.1,11.8V71.8l25.1-8.8V107.1z"/>
			<path class="st1" d="M119.9,125.6l-4.6,2.1v-8.8l4.6-2.1V125.6z"/>
			<path class="st1" d="M140.5,115.7l-4.6,2.2v-8.8l4.6-2.2V115.7z"/>
		</g>
		<path class="st2" d="M46.3,71.8v47.1v8.8h6.3v-8.8h56.5v8.8h6.2v-8.8V71.8H46.3z"/>
		<path class="st1" d="M109.1,81.9c0-3.2-2.8-5.9-6.3-5.9h-44c-3.4,0-6.3,2.6-6.3,5.9v26.8c0,3.2,2.8,5.9,6.3,5.9h44
			c3.4,0,6.3-2.6,6.3-5.9V81.9"/>
		<path class="st2" d="M107.2,83.8c0-3.2-2.8-5.9-6.3-5.9H60.6c-3.4,0-6.3,2.6-6.3,5.9v22.9c0,3.2,2.8,5.9,6.3,5.9h40.3
			c3.4,0,6.3-2.6,6.3-5.9V83.8"/>
		<path class="st3" d="M110.6,61.6H73.4l-18.4,5h55.6V61.6z"/>
		<path class="st4" d="M65.3,38.7h58.1v22.9H65.3V38.7z"/>
		<path class="st2" d="M134.1,62.9L109,71.8c0-27.9,7.2-38.2,14.1-38.2C130,33.5,134.1,46.8,134.1,62.9"/>
		<g>
			<path class="st1" d="M73.4,61.6l-18.4,5c0-20.4,5.3-27.9,10.3-27.9C70.4,38.7,73.4,49.7,73.4,61.6"/>
			<path class="st1" d="M140.5,62.9l-25.1,8.8c0-27.9,7.2-38.2,14.1-38.2C136.3,33.5,140.5,46.8,140.5,62.9z"/>
		</g>
	</g>
	<path class="st5" d="M48.7,82.1c0-9.8,7.1-19.1,16-19.5h45.7c-9.3,0-19.8,9.5-19.8,19.5c0,5.4-0.1,12.4-0.1,17.8v0.1v10.3
		c0,2.5-1.8,4.6-4,4.6H52.9c-2.2,0-4-2.1-4-4.6V100c0-0.1,0-0.2,0-0.4C48.8,94.3,48.7,87.3,48.7,82.1z"/>
</g>
</svg>
