<?xml version="1.0" encoding="utf-8"?>
<!-- Generator: Adobe Illustrator 19.2.1, SVG Export Plug-In . SVG Version: 6.00 Build 0)  -->
<svg version="1.1" id="Calque_1" xmlns="http://www.w3.org/2000/svg" xmlns:xlink="http://www.w3.org/1999/xlink" x="0px" y="0px"
	 width="20px" height="39.8px" viewBox="0 0 20 39.8" style="enable-background:new 0 0 20 39.8;" xml:space="preserve">
<style type="text/css">
	.st0{fill:#E5E5E5;}
	.st1{fill:#F07A9C;}
	.st2{fill:#FFFFFF;}
</style>
<g>
	<path class="st0" d="M16.9,1c1.1,0,2,0.9,2,2v13.9c0,1.1-0.9,2-2,2H3c-1.1,0-2-0.9-2-2V3c0-1.1,0.9-2,2-2H16.9 M16.9,0H3
		C1.4,0,0,1.3,0,3v13.9c0,1.6,1.4,3,3,3h13.9c1.6,0,3-1.4,3-3V3C19.9,1.3,18.6,0,16.9,0L16.9,0z"/>
</g>
<g>
	<path class="st1" d="M16.9,39.8H3c-1.6,0-3-1.3-3-3V22.9c0-1.6,1.4-3,3-3h13.9c1.6,0,3,1.4,3,3v13.9C19.9,38.4,18.6,39.8,16.9,39.8
		z"/>
</g>
<g id="Small_Icons">
	<g id="Artboard_4">
		<path id="Rectangle_63" class="st2" d="M13.9,25l1.5,1.3c0.1,0.1,0.1,0.2,0,0.3L9,34.4c-0.1,0.1-0.1,0.1-0.2,0.1
			c0,0-0.1,0-0.1-0.1l-4.3-3.6c-0.1-0.1-0.1-0.2,0-0.3l1.3-1.5c0.1-0.1,0.2-0.1,0.3,0l2.6,2.2l5.1-6.1C13.7,24.9,13.8,24.9,13.9,25z
			"/>
	</g>
</g>
</svg>
