<?xml version="1.0" encoding="utf-8"?>
<!-- Generator: Adobe Illustrator 19.2.1, SVG Export Plug-In . SVG Version: 6.00 Build 0)  -->
<svg version="1.1" id="Calque_1" xmlns="http://www.w3.org/2000/svg" xmlns:xlink="http://www.w3.org/1999/xlink" x="0px" y="0px"
	 width="60px" height="60px" viewBox="0 0 60 60" style="enable-background:new 0 0 60 60;" xml:space="preserve">
<style type="text/css">
	.st0{fill:#FDEB6C;}
	.st1{fill:#FFFFFF;}
	.st2{fill:#CDD2DA;}
	.st3{fill:#444B55;}
</style>
<g id="notepad_1_">
	<circle id="label_15_" class="st0" cx="30" cy="30" r="30"/>
	<g id="notepad_5_">
		<g>
			<rect x="15.9" y="16.5" class="st1" width="28.1" height="28.5"/>
		</g>
		<g>
			<rect x="15.9" y="43" class="st2" width="28.1" height="2"/>
		</g>
		<g>
			<path class="st3" d="M29.9,15c-0.3,0-0.5,0.2-0.5,0.5v2c0,0.3,0.2,0.5,0.5,0.5c0.3,0,0.5-0.2,0.5-0.5v-2
				C30.4,15.2,30.2,15,29.9,15z"/>
			<path class="st3" d="M25.9,15c-0.3,0-0.5,0.2-0.5,0.5v2c0,0.3,0.2,0.5,0.5,0.5c0.3,0,0.5-0.2,0.5-0.5v-2
				C26.4,15.2,26.1,15,25.9,15z"/>
			<path class="st3" d="M21.8,15c-0.3,0-0.5,0.2-0.5,0.5v2c0,0.3,0.2,0.5,0.5,0.5c0.3,0,0.5-0.2,0.5-0.5v-2
				C22.4,15.2,22.1,15,21.8,15z"/>
			<path class="st3" d="M17.8,15c-0.3,0-0.5,0.2-0.5,0.5v2c0,0.3,0.2,0.5,0.5,0.5c0.3,0,0.5-0.2,0.5-0.5v-2
				C18.3,15.2,18.1,15,17.8,15z"/>
			<path class="st3" d="M41.9,15c-0.3,0-0.5,0.2-0.5,0.5v2c0,0.3,0.2,0.5,0.5,0.5c0.3,0,0.5-0.2,0.5-0.5v-2
				C42.4,15.2,42.2,15,41.9,15z"/>
			<path class="st3" d="M37.9,15c-0.3,0-0.5,0.2-0.5,0.5v2c0,0.3,0.2,0.5,0.5,0.5c0.3,0,0.5-0.2,0.5-0.5v-2
				C38.4,15.2,38.2,15,37.9,15z"/>
			<path class="st3" d="M33.9,15c-0.3,0-0.5,0.2-0.5,0.5v2c0,0.3,0.2,0.5,0.5,0.5c0.3,0,0.5-0.2,0.5-0.5v-2
				C34.4,15.2,34.2,15,33.9,15z"/>
		</g>
	</g>
</g>
</svg>
